<svg width="106" height="88" viewBox="0 0 106 88" fill="none" xmlns="http://www.w3.org/2000/svg">
<g id="industry-svgrepo-com 1">
<g id="XMLID_1325_">
<path id="XMLID_1326_" d="M52.2996 32.1816H102.624C102.69 31.7922 102.726 31.3931 102.726 30.988C102.726 26.2174 98.069 22.3506 92.3198 22.3506C90.7201 22.3506 89.2048 22.6501 87.8483 23.1864C87.5981 18.5996 83.0426 14.9456 77.4545 14.9456C71.7084 14.9456 67.0481 18.8126 67.0481 23.5841C67.0481 24.3489 67.1699 25.0898 67.3935 25.7939C65.9577 25.1729 64.3236 24.8173 62.5892 24.8173C57.365 24.8173 53.0429 28.0157 52.2996 32.1816Z" fill="#DEDDE0"/>
<path id="XMLID_1327_" d="M71.9101 48.462L44.4689 60.8884L48.0974 88.0001H102.726V48.462L71.9101 62.4166V48.462ZM83.1161 69.3939H91.5205V76.3712H83.1161V69.3939ZM60.7041 76.3712H52.2997V69.3939H60.7041V76.3712Z" fill="#092519"/>
<path id="XMLID_1331_" d="M21.4832 76.3712V69.3939H25.8256V32.1821H10.744L3.27356 88H25.8256V76.3712H21.4832Z" fill="#153D2B"/>
<path id="XMLID_1332_" d="M40.627 32.1821H25.8256V69.3939H29.8877V76.3712H25.8256V88H48.0974L44.4689 60.8884L40.627 32.1821Z" fill="#3A6653"/>
<path id="XMLID_1333_" d="M57.999 16.9653C57.999 11.92 53.0726 7.83016 46.9953 7.83016C45.3024 7.83016 43.6994 8.14855 42.2664 8.71534C42.0019 3.86542 37.1834 0 31.2756 0C25.1983 0 20.2719 4.09009 20.2719 9.13514C20.2719 9.94358 20.3996 10.7269 20.6372 11.473C19.1168 10.8146 17.3894 10.4401 15.5559 10.4401C10.031 10.4401 5.46013 13.8216 4.67432 18.227H57.8909C57.9601 17.8144 57.999 17.3942 57.999 16.9653Z" fill="#ACABB1"/>
<path id="XMLID_1334_" d="M60.7041 69.3939H52.2996V76.3712H60.7041V69.3939Z" fill="white"/>
<path id="XMLID_1335_" d="M91.5205 69.3939H83.116V76.3712H91.5205V69.3939Z" fill="white"/>
<path id="XMLID_1336_" d="M21.4833 76.3712H25.8256H29.8877V69.3939H25.8256H21.4833V76.3712Z" fill="white"/>
<path id="XMLID_1337_" d="M40.6269 32.1821H43.8951V25.2048H7.47577V32.1821H10.744H25.8255H40.6269Z" fill="#565659"/>
</g>
</g>
</svg>
